<svg width="321" height="316" viewBox="0 0 321 316" fill="none" xmlns="http://www.w3.org/2000/svg">
<path d="M321 148.799C321 230.978 235.059 316 147.87 316C60.6819 316 0 275.67 0 193.491C0 111.312 75.9426 0 163.131 0C250.32 0 321 66.6194 321 148.799Z" fill="black"/>
<path d="M313.5 149C313.5 227.148 231.843 308 149 308C66.1573 308 8.5 269.648 8.5 191.5C8.5 113.352 80.6573 7.5 163.5 7.5C246.343 7.5 313.5 70.8517 313.5 149Z" fill="#FFB624"/>
<path fill-rule="evenodd" clip-rule="evenodd" d="M313.46 145.711C292.471 147.162 271.811 150.214 248.603 153.643C235.015 155.651 220.553 157.788 204.64 159.808C152.286 166.453 92.3824 170.039 12.33 158.501C19.626 125.589 36.9067 91.1771 60.3681 63.5305C113.282 68.3992 154.67 65.3481 192.047 60.6036C203.681 59.1269 215.51 57.3587 227.61 55.5498C241.423 53.4851 255.59 51.3673 270.225 49.5697C296.223 74.4004 312.555 108.258 313.46 145.711Z" fill="black"/>
<path d="M254.953 105C254.953 128.196 230.149 149 206.953 149C183.757 149 165 132.196 165 109C165 85.804 189.804 65 213 65C236.196 65 254.953 81.804 254.953 105Z" fill="white"/>
<path d="M152 112.5C152 137.353 121.748 159.5 98 159.5C74.2518 159.5 55 139.353 55 114.5C55 89.6472 85.2518 67.5 109 67.5C136.5 67.5 152 87.6472 152 112.5Z" fill="white"/>
<path d="M90 214.353C90 214.353 102.936 232.857 145.5 232.353C189.09 231.838 215.5 214.354 215.5 214.354" stroke="black" stroke-width="70" stroke-linecap="round"/>
<path d="M90 214.353C90 214.353 102.936 232.857 145.5 232.353C189.09 231.838 215.5 214.354 215.5 214.354" stroke="white" stroke-width="60" stroke-linecap="round"/>
<path d="M115.5 195.5C115.5 195.5 118.996 197.957 121.5 199C125 200.457 131 201 131 201C139.5 201.5 137 202.5 147 202L145.5 232.5L120.5 229.5L100 219.5L115.5 195.5Z" fill="url(#paint0_linear_23_146)"/>
<path d="M117 195.5L78.9755 246.532" stroke="black" stroke-width="5"/>
<line x1="149.464" y1="201.423" x2="138.464" y2="265.423" stroke="black" stroke-width="5"/>
<line x1="185.473" y1="192.631" x2="195.473" y2="259.631" stroke="black" stroke-width="5"/>
<path d="M63.0193 195.5C63.0193 195.5 101 231.5 141.5 233.5C182 235.5 245.018 202.539 245.018 202.539" stroke="black" stroke-width="5"/>
<path d="M116 111.5C116 125.031 100.031 138.5 86.5 138.5C72.969 138.5 62 127.531 62 114C62 100.469 77.969 87 91.5 87C105.031 87 116 97.969 116 111.5Z" fill="black"/>
<path d="M224 105.5C224 119.031 208.031 132.5 194.5 132.5C180.969 132.5 170 121.531 170 108C170 94.469 185.969 81 199.5 81C213.031 81 224 91.969 224 105.5Z" fill="black"/>
<path d="M87.7898 112.948C86.7161 112.587 86.9759 111 88.1087 111L115.769 111C116.404 111 116.878 111.584 116.748 112.205L114.928 120.898C114.805 121.484 114.198 121.832 113.63 121.641L87.7898 112.948Z" fill="white"/>
<path d="M198.281 114.167C197.149 114.195 196.85 112.615 197.915 112.228L223.907 102.767C224.503 102.55 225.148 102.937 225.239 103.565L226.502 112.356C226.587 112.949 226.135 113.483 225.537 113.498L198.281 114.167Z" fill="white"/>
<path d="M136.43 22.5371C136.43 22.5371 173.175 18.0433 196 22.5372C216.291 26.5321 245.43 41.5371 245.43 41.5371" stroke="#FFD88A" stroke-width="10" stroke-linecap="round"/>
<path d="M29.432 242.631C34 253.5 50.6031 270.63 69.5 281.5C89.4414 292.971 119.5 298 126.432 296.631" stroke="#FFE8C8" stroke-width="10" stroke-linecap="round"/>
<defs>
<linearGradient id="paint0_linear_23_146" x1="123.5" y1="195.5" x2="151.5" y2="251" gradientUnits="userSpaceOnUse">
<stop stop-color="#FFAA00"/>
<stop offset="1" stop-color="#FFB624"/>
</linearGradient>
</defs>
</svg>
